<svg xmlns="http://www.w3.org/2000/svg">
  <symbol id="cross" viewBox="0 0 24 24" fill="none">
    <path d="M19.7071 5.70711C20.0976 5.31658 20.0976 4.68342 19.7071 4.29289C19.3166 3.90237 18.6834 3.90237 18.2929 4.29289L12 10.5858L5.70711 4.29289C5.31658 3.90237 4.68342 3.90237 4.29289 4.29289C3.90237 4.68342 3.90237 5.31658 4.29289 5.70711L10.5858 12L4.29289 18.2929C3.90237 18.6834 3.90237 19.3166 4.29289 19.7071C4.68342 20.0976 5.31658 20.0976 5.70711 19.7071L12 13.4142L18.2929 19.7071C18.6834 20.0976 19.3166 20.0976 19.7071 19.7071C20.0976 19.3166 20.0976 18.6834 19.7071 18.2929L13.4142 12L19.7071 5.70711Z" fill="currentColor"/>
  </symbol>
  <symbol id="menu" viewBox="0 0 24 24" fill="none">
    <path d="M20 6L4 6" stroke="currentColor" stroke-width="1.5" stroke-linecap="round"/>
    <path d="M20 12L4 12" stroke="currentColor" stroke-width="1.5" stroke-linecap="round"/>
    <path d="M20 18H4" stroke="currentColor" stroke-width="1.5" stroke-linecap="round"/>
  </symbol>
  <symbol id="star" viewBox="0 0 22 20" fill="none">
    <path d="M9.97183 1.70846C10.4382 0.933481 11.5618 0.933482 12.0282 1.70847L14.3586 5.58087C14.5262 5.85928 14.7995 6.05784 15.116 6.13116L19.5191 7.15091C20.4002 7.35499 20.7474 8.42356 20.1545 9.10661L17.1918 12.5196C16.9788 12.765 16.8744 13.0863 16.9025 13.41L17.2932 17.9127C17.3714 18.8138 16.4625 19.4742 15.6296 19.1214L11.4681 17.3583C11.1689 17.2316 10.8311 17.2316 10.5319 17.3583L6.37038 19.1214C5.53754 19.4742 4.62856 18.8138 4.70677 17.9127L5.09754 13.41C5.12563 13.0863 5.02124 12.765 4.80823 12.5196L1.8455 9.1066C1.25257 8.42356 1.59977 7.35499 2.48095 7.15091L6.88397 6.13116C7.20053 6.05784 7.47383 5.85928 7.64138 5.58087L9.97183 1.70846Z" stroke="currentColor" stroke-width="1.5"/>
  </symbol>
  <symbol id="lightning" viewBox="0 0 24 24" fill="none">
    <path d="M13.8154 10.4211C13.7049 10.4211 13.6154 10.3316 13.6154 10.2211V2.60383C13.6154 2.41125 13.3699 2.32994 13.2549 2.48445L5.59411 12.7804C5.34868 13.1103 5.58411 13.5789 5.99525 13.5789H10.1846C10.2951 13.5789 10.3846 13.6684 10.3846 13.7789V21.3962C10.3846 21.5888 10.6301 21.6701 10.7451 21.5156L18.4059 11.2196C18.6513 10.8897 18.4159 10.4211 18.0047 10.4211H13.8154Z" stroke="currentColor" stroke-width="1.5"/>
  </symbol>
  <symbol id="fire" viewBox="0 0 24 24" fill="none">
    <path d="M13.7524 3.17224C13.7503 3.09602 13.6671 3.04639 13.6016 3.0855C10.1363 5.15576 10.2004 10.3491 10.2418 11.2901C10.2449 11.3611 10.1778 11.4112 10.1135 11.3809C9.71316 11.1924 8.5661 10.4823 8.50273 8.51531C8.50028 8.43898 8.41792 8.38991 8.35223 8.42885C6.34578 9.61803 5 11.8144 5 14.25C5 17.9779 8.134 21 12 21C15.866 21 19 17.9779 19 14.25C19 8.83413 13.8803 7.6694 13.7524 3.17224Z" stroke="currentColor" stroke-width="1.5"/>
  </symbol>
  <symbol id="gear" viewBox="0 0 24 24" fill="none">
    <circle cx="3" cy="3" r="3" transform="matrix(-1 0 0 1 15 9)" stroke="currentColor" stroke-width="1.5"/>
    <path d="M16.5001 4.9375L16.8751 4.28798L16.8751 4.28798L16.5001 4.9375ZM16.5001 19.0621L16.1251 18.4126L16.5001 19.0621ZM7.50005 19.0621L7.12505 19.7117H7.12505L7.50005 19.0621ZM7.50005 4.9375L7.87505 5.58702L7.50005 4.9375ZM8.92299 3.01508L8.19229 2.84601L8.92299 3.01508ZM5.31189 18.7402L5.13971 18.0102L5.31189 18.7402ZM4.403 18.503L4.97254 18.015L4.403 18.503ZM9.53927 21.695L9.72325 20.9679L9.53927 21.695ZM8.92305 20.9848L9.65376 20.8158L8.92305 20.9848ZM15.0771 20.9848L14.3464 20.8158L15.0771 20.9848ZM14.4609 21.695L14.6448 22.422L14.4609 21.695ZM19.597 18.503L19.0275 18.015L19.597 18.503ZM21.4437 8.70289L22.1518 8.45569L21.4437 8.70289ZM21.0936 9.68352L20.6167 9.10469L21.0936 9.68352ZM18.688 5.2595L18.5159 4.52952L18.688 5.2595ZM21.0936 14.3165L20.6167 14.8953L21.0936 14.3165ZM21.4437 15.2971L20.7356 15.0499L21.4437 15.2971ZM15.0772 3.01511L14.3465 3.18418L15.0772 3.01511ZM14.3465 3.18418C14.5723 4.16005 15.1879 5.04592 16.1251 5.58702L16.8751 4.28798C16.3127 3.96329 15.9439 3.43381 15.8079 2.84603L14.3465 3.18418ZM16.1251 5.58702C16.986 6.08408 17.9639 6.2008 18.8601 5.98949L18.5159 4.52952C17.9767 4.65663 17.3922 4.5865 16.8751 4.28798L16.1251 5.58702ZM22.1518 8.45569C21.7062 7.17937 21.0272 6.01337 20.1663 5.00871L19.0273 5.98471C19.7687 6.85004 20.3527 7.85328 20.7356 8.95008L22.1518 8.45569ZM20.75 12C20.75 11.3006 21.0682 10.6762 21.5705 10.2624L20.6167 9.10469C19.7834 9.79128 19.25 10.8337 19.25 12H20.75ZM21.5705 13.7376C21.0682 13.3238 20.75 12.6994 20.75 12H19.25C19.25 13.1663 19.7834 14.2087 20.6167 14.8953L21.5705 13.7376ZM20.1666 18.991C21.0273 17.9864 21.7063 16.8205 22.1518 15.5443L20.7356 15.0499C20.3528 16.1466 19.7688 17.1497 19.0275 18.015L20.1666 18.991ZM16.8751 19.7117C17.3922 19.4131 17.9768 19.343 18.516 19.4702L18.8603 18.0102C17.964 17.7988 16.9861 17.9155 16.1251 18.4126L16.8751 19.7117ZM15.8078 21.1538C15.9437 20.566 16.3126 20.0364 16.8751 19.7117L16.1251 18.4126C15.1877 18.9538 14.5721 19.8398 14.3464 20.8158L15.8078 21.1538ZM12 22.75C12.9117 22.75 13.7979 22.6363 14.6448 22.422L14.2769 20.9679C13.5493 21.152 12.7866 21.25 12 21.25V22.75ZM9.3553 22.4221C10.2022 22.6363 11.0883 22.75 12 22.75V21.25C11.2134 21.25 10.4508 21.152 9.72325 20.9679L9.3553 22.4221ZM7.12505 19.7117C7.68749 20.0364 8.05637 20.566 8.19233 21.1538L9.65376 20.8158C9.42802 19.8398 8.81238 18.9538 7.87505 18.4126L7.12505 19.7117ZM5.48406 19.4702C6.02327 19.343 6.60793 19.4131 7.12505 19.7117L7.87505 18.4126C7.01401 17.9155 6.03606 17.7988 5.13971 18.0102L5.48406 19.4702ZM1.84822 15.5443C2.29374 16.8205 2.97273 17.9864 3.83347 18.991L4.97254 18.015C4.23118 17.1498 3.64726 16.1466 3.2644 15.0499L1.84822 15.5443ZM3.25004 12C3.25004 12.6994 2.93185 13.3238 2.42953 13.7376L3.38336 14.8953C4.21668 14.2087 4.75004 13.1663 4.75004 12H3.25004ZM2.42953 10.2623C2.93185 10.6762 3.25004 11.3006 3.25004 12H4.75004C4.75004 10.8337 4.21668 9.79126 3.38336 9.10468L2.42953 10.2623ZM3.83375 5.00867C2.97288 6.01334 2.29379 7.17934 1.84822 8.45567L3.2644 8.95007C3.6473 7.85326 4.23132 6.85001 4.97279 5.98468L3.83375 5.00867ZM7.12505 4.28798C6.60798 4.58651 6.02337 4.65664 5.4842 4.5295L5.13994 5.98946C6.03623 6.20081 7.01409 6.0841 7.87505 5.58702L7.12505 4.28798ZM8.19229 2.84601C8.05629 3.43379 7.68743 3.96329 7.12505 4.28798L7.87505 5.58702C8.81227 5.04591 9.42788 4.16003 9.65368 3.18415L8.19229 2.84601ZM12 1.25C11.0883 1.25 10.2021 1.36366 9.35521 1.57796L9.72318 3.03213C10.4508 2.84802 11.2134 2.75 12 2.75V1.25ZM14.645 1.578C13.798 1.36368 12.9118 1.25 12 1.25V2.75C12.7867 2.75 13.5494 2.84803 14.277 3.03217L14.645 1.578ZM9.65368 3.18415C9.66929 3.11668 9.69574 3.06909 9.71626 3.04413C9.73389 3.02269 9.73703 3.02862 9.72318 3.03213L9.35521 1.57796C8.66401 1.75286 8.30711 2.3498 8.19229 2.84601L9.65368 3.18415ZM3.38336 9.10468C3.32248 9.05451 3.28709 9.00024 3.27289 8.96394C3.26095 8.93341 3.26974 8.93478 3.2644 8.95007L1.84822 8.45567C1.58221 9.21766 1.99436 9.9038 2.42953 10.2623L3.38336 9.10468ZM5.13971 18.0102C5.07248 18.0261 5.01821 18.0235 4.98674 18.0162C4.95969 18.0099 4.96341 18.0044 4.97254 18.015L3.83347 18.991C4.29652 19.5314 4.98849 19.5871 5.48406 19.4702L5.13971 18.0102ZM9.72325 20.9679C9.73711 20.9714 9.73396 20.9773 9.71634 20.9559C9.69581 20.9309 9.66936 20.8833 9.65376 20.8158L8.19233 21.1538C8.30711 21.6501 8.66402 22.2471 9.3553 22.4221L9.72325 20.9679ZM14.3464 20.8158C14.3308 20.8833 14.3043 20.9309 14.2838 20.9559C14.2662 20.9773 14.263 20.9714 14.2769 20.9679L14.6448 22.422C15.3361 22.2471 15.693 21.6501 15.8078 21.1538L14.3464 20.8158ZM19.0275 18.015C19.0366 18.0043 19.0403 18.0098 19.0133 18.0161C18.9818 18.0235 18.9276 18.0261 18.8603 18.0102L18.516 19.4702C19.0116 19.587 19.7035 19.5314 20.1666 18.991L19.0275 18.015ZM20.7356 8.95008C20.7303 8.93479 20.7391 8.93343 20.7271 8.96395C20.7129 9.00025 20.6775 9.05452 20.6167 9.10469L21.5705 10.2624C22.0057 9.90381 22.4178 9.21767 22.1518 8.45569L20.7356 8.95008ZM3.2644 15.0499C3.26974 15.0652 3.26095 15.0666 3.27289 15.0361C3.28709 14.9998 3.32248 14.9455 3.38336 14.8953L2.42953 13.7376C1.99436 14.0962 1.58221 14.7823 1.84822 15.5443L3.2644 15.0499ZM18.8601 5.98949C18.9273 5.97364 18.9816 5.97624 19.0131 5.98357C19.0401 5.98987 19.0364 5.99537 19.0273 5.98471L20.1663 5.00871C19.7033 4.46835 19.0114 4.41269 18.5159 4.52952L18.8601 5.98949ZM4.97279 5.98468C4.96366 5.99534 4.95994 5.98984 4.98699 5.98354C5.01845 5.97621 5.07271 5.97361 5.13994 5.98946L5.4842 4.5295C4.98867 4.41265 4.29678 4.4683 3.83375 5.00867L4.97279 5.98468ZM20.6167 14.8953C20.6775 14.9455 20.7129 14.9997 20.7271 15.036C20.7391 15.0666 20.7303 15.0652 20.7356 15.0499L22.1518 15.5443C22.4178 14.7823 22.0057 14.0962 21.5705 13.7376L20.6167 14.8953ZM15.8079 2.84603C15.6931 2.34983 15.3362 1.75292 14.645 1.578L14.277 3.03217C14.2631 3.02866 14.2663 3.02273 14.2839 3.04417C14.3044 3.06913 14.3309 3.11672 14.3465 3.18418L15.8079 2.84603Z" fill="currentColor"/>
  </symbol>
  <symbol id="rocket" viewBox="0 0 24 24" fill="none">
    <path d="M18.3037 12.8089L17.7538 12.2989L18.3037 12.8089ZM11.2326 5.73783L11.7426 6.28773L11.2326 5.73783ZM21.661 4.27232L22.4047 4.36958L21.661 4.27232ZM19.7692 2.38046L19.8664 3.12413L19.7692 2.38046ZM6.4945 12.6506L7.16792 12.9808L6.4945 12.6506ZM11.3909 17.547L11.0607 16.8736L11.3909 17.547ZM8.22743 10.1572C7.93454 9.86432 7.45966 9.86432 7.16677 10.1572C6.87388 10.4501 6.87388 10.925 7.16677 11.2179L8.22743 10.1572ZM12.8236 16.8747C13.1165 17.1676 13.5914 17.1676 13.8843 16.8747C14.1772 16.5818 14.1772 16.107 13.8843 15.8141L12.8236 16.8747ZM6.45966 18.6425C6.75256 18.3496 6.75256 17.8747 6.45966 17.5818C6.16677 17.2889 5.6919 17.2889 5.399 17.5818L6.45966 18.6425ZM2.57058 20.4103C2.27768 20.7032 2.27768 21.178 2.57058 21.4709C2.86347 21.7638 3.33834 21.7638 3.63124 21.4709L2.57058 20.4103ZM4.33834 16.5212C4.63124 16.2283 4.63124 15.7534 4.33834 15.4605C4.04545 15.1676 3.57058 15.1676 3.27768 15.4605L4.33834 16.5212ZM1.86347 16.8747C1.57058 17.1676 1.57058 17.6425 1.86347 17.9354C2.15636 18.2283 2.63124 18.2283 2.92413 17.9354L1.86347 16.8747ZM8.58098 20.7638C8.87387 20.4709 8.87387 19.996 8.58098 19.7032C8.28809 19.4103 7.81321 19.4103 7.52032 19.7032L8.58098 20.7638ZM6.10611 21.1174C5.81322 21.4103 5.81322 21.8851 6.10611 22.178C6.399 22.4709 6.87388 22.4709 7.16677 22.178L6.10611 21.1174ZM10.5962 21.082L11.3387 20.9759L10.5962 21.082ZM15.7581 17.6172L16.5006 17.5111L15.7581 17.6172ZM2.95946 13.4453L3.06553 12.7028L3.06553 12.7028L2.95946 13.4453ZM6.42429 8.2834L6.31822 9.02586L6.31822 9.02586L6.42429 8.2834ZM9.75038 16.63L7.41152 14.2911L6.35086 15.3518L8.68972 17.6906L9.75038 16.63ZM17.7538 12.2989C15.8601 14.3406 12.7855 16.028 11.0607 16.8736L11.721 18.2204C13.4613 17.3673 16.7569 15.5795 18.8536 13.3189L17.7538 12.2989ZM7.16792 12.9808C8.01346 11.256 9.70087 8.18137 11.7426 6.28773L10.7226 5.18793C8.46197 7.28458 6.67421 10.5802 5.82107 12.3205L7.16792 12.9808ZM20.9174 4.17506C20.6135 6.49841 19.8062 10.086 17.7538 12.2989L18.8536 13.3189C21.2491 10.7361 22.0962 6.72859 22.4047 4.36958L20.9174 4.17506ZM11.7426 6.28773C13.9555 4.23532 17.5431 3.42799 19.8664 3.12413L19.6719 1.6368C17.3129 1.94532 13.3054 2.79243 10.7226 5.18793L11.7426 6.28773ZM22.4047 4.36958C22.6158 2.75571 21.2858 1.42572 19.6719 1.6368L19.8664 3.12413C20.5034 3.04082 21.0007 3.5381 20.9174 4.17506L22.4047 4.36958ZM7.41152 14.2911C7.04834 13.9279 6.9596 13.4057 7.16792 12.9808L5.82107 12.3205C5.31288 13.3571 5.56307 14.564 6.35086 15.3518L7.41152 14.2911ZM8.68972 17.6906C9.47751 18.4784 10.6844 18.7286 11.721 18.2204L11.0607 16.8736C10.6358 17.0819 10.1136 16.9932 9.75038 16.63L8.68972 17.6906ZM7.16677 11.2179L12.8236 16.8747L13.8843 15.8141L8.22743 10.1572L7.16677 11.2179ZM5.399 17.5818L2.57058 20.4103L3.63124 21.4709L6.45966 18.6425L5.399 17.5818ZM3.27768 15.4605L1.86347 16.8747L2.92413 17.9354L4.33834 16.5212L3.27768 15.4605ZM7.52032 19.7032L6.10611 21.1174L7.16677 22.178L8.58098 20.7638L7.52032 19.7032ZM13.1772 6.97523C12.1032 8.04917 12.1032 9.79037 13.1772 10.8643L14.2378 9.80366C13.7497 9.3155 13.7497 8.52404 14.2378 8.03589L13.1772 6.97523ZM13.1772 10.8643C14.2511 11.9383 15.9923 11.9383 17.0663 10.8643L16.0056 9.80366C15.5174 10.2918 14.726 10.2918 14.2378 9.80366L13.1772 10.8643ZM17.0663 10.8643C18.1402 9.79038 18.1402 8.04917 17.0663 6.97523L16.0056 8.03589C16.4938 8.52404 16.4938 9.3155 16.0056 9.80366L17.0663 10.8643ZM17.0663 6.97523C15.9923 5.90129 14.2511 5.90129 13.1772 6.97523L14.2378 8.03589C14.726 7.54773 15.5174 7.54773 16.0056 8.03589L17.0663 6.97523ZM14.9449 17.9354L11.763 21.1174L12.8236 22.178L16.0056 18.996L14.9449 17.9354ZM11.3387 20.9759L10.9144 18.0061L9.42951 18.2182L9.85378 21.1881L11.3387 20.9759ZM14.7328 15.7434L15.0157 17.7233L16.5006 17.5111L16.2177 15.5312L14.7328 15.7434ZM11.763 21.1174C11.6173 21.263 11.3678 21.1799 11.3387 20.9759L9.85378 21.1881C10.0577 22.6157 11.8039 23.1977 12.8236 22.178L11.763 21.1174ZM16.0056 18.996C16.3951 18.6066 16.5785 18.0564 16.5006 17.5111L15.0157 17.7233C15.0268 17.8011 15.0006 17.8797 14.9449 17.9354L16.0056 18.996ZM5.04543 8.03591L1.86345 11.2179L2.92411 12.2786L6.10609 9.09657L5.04543 8.03591ZM2.8534 14.1877L5.82324 14.612L6.03538 13.1271L3.06553 12.7028L2.8534 14.1877ZM8.51025 7.82378L6.53035 7.54094L6.31822 9.02586L8.29812 9.3087L8.51025 7.82378ZM1.86345 11.2179C0.843743 12.2376 1.42581 13.9838 2.8534 14.1877L3.06553 12.7028C2.86159 12.6737 2.77844 12.4242 2.92411 12.2786L1.86345 11.2179ZM6.10609 9.09657C6.16173 9.04093 6.24032 9.01473 6.31822 9.02586L6.53035 7.54094C5.98506 7.46304 5.43492 7.64642 5.04543 8.03591L6.10609 9.09657Z" fill="currentColor"/>
  </symbol>
  <symbol id="chart-one" viewBox="0 0 24 24" fill="none" xmlns="http://www.w3.org/2000/svg">
    <rect x="2" y="2" width="20" height="20" rx="5" stroke="currentColor" stroke-width="1.5"/>
    <path d="M8 17L8 14" stroke="currentColor" stroke-width="1.5" stroke-linecap="round" stroke-linejoin="round"/>
    <path d="M12 17L12 7" stroke="currentColor" stroke-width="1.5" stroke-linecap="round" stroke-linejoin="round"/>
    <path d="M16 17L16 10" stroke="currentColor" stroke-width="1.5" stroke-linecap="round" stroke-linejoin="round"/>
  </symbol>
  <symbol id="chart-two" viewBox="0 0 24 24" fill="none">
    <path d="M22 9V17C22 19.7614 19.7614 22 17 22H7C4.23858 22 2 19.7614 2 17V7C2 4.23858 4.23858 2 7 2H16" stroke="currentColor" stroke-width="1.5" stroke-linecap="round"/>
    <circle cx="2" cy="2" r="2" transform="matrix(-1 0 0 1 23 2)" stroke="currentColor" stroke-width="1.5"/>
    <path d="M7 14.75L10.5 10.75L13.5 13.25L17 9.25" stroke="currentColor" stroke-width="1.5" stroke-linecap="round" stroke-linejoin="round"/>
  </symbol>
    <symbol id="chevron-right" viewBox="0 0 24 24" fill="none">
    <path d="M9 19L14.3306 12.7809C14.7158 12.3316 14.7158 11.6684 14.3306 11.2191L9 5" stroke="currentColor" stroke-width="1.5" stroke-linecap="round"/>
  </symbol>
  <symbol id="chevron-left" viewBox="0 0 24 24" fill="none">
    <path d="M15 5L9.66939 11.2191C9.2842 11.6684 9.2842 12.3316 9.66939 12.7809L15 19" stroke="currentColor" stroke-width="1.5" stroke-linecap="round"/>
  </symbol>
  <symbol id="quote" fill="currentColor" viewBox="0 0 349.078 349.078">
    <path d="M198.779 322.441v-58.245c0-7.903 6.406-14.304 14.304-14.304 28.183.0 43.515-28.904 45.643-85.961h-45.643c-7.897.0-14.304-6.41-14.304-14.304V26.64c0-7.9 6.406-14.301 14.304-14.301h121.69c7.896.0 14.305 6.408 14.305 14.301v122.988c0 27.349-2.761 52.446-8.181 74.611-5.568 22.722-14.115 42.587-25.398 59.049-11.604 16.917-26.132 30.192-43.155 39.437-17.152 9.304-37.09 14.026-59.267 14.026C205.186 336.745 198.779 330.338 198.779 322.441zM14.301 249.887C6.404 249.887.0 256.293.0 264.185v58.257c0 7.896 6.404 14.298 14.301 14.298 22.166.0 42.114-4.723 59.255-14.026 17.032-9.244 31.558-22.508 43.161-39.437 11.29-16.462 19.836-36.328 25.404-59.061 5.423-22.165 8.178-47.263 8.178-74.6V26.628c0-7.9-6.41-14.301-14.304-14.301H14.301C6.404 12.327.0 18.734.0 26.628v122.988c0 7.899 6.404 14.304 14.301 14.304h45.002c-2.102 57.062-17.213 85.967-45.002 85.967z"/>
  </symbol>
  <symbol id="mail" viewBox="0 0 24 24" fill="none">
    <rect x="2" y="4" width="20" height="16" rx="5" stroke="currentColor" stroke-width="1.5"/>
    <path d="M6 9L10.8 12.6C11.5111 13.1333 12.4889 13.1333 13.2 12.6L18 9" stroke="currentColor" stroke-width="1.5" stroke-linecap="round" stroke-linejoin="round"/>
  </symbol>
    <symbol id="twitter" viewBox="0 0 48 48" fill="none">
    <path d="M15.1003 43.5C33.2091 43.5 43.1166 28.4935 43.1166 15.4838C43.1166 15.0619 43.1072 14.6307 43.0884 14.2088C45.0158 12.815 46.679 11.0886 48 9.11066C46.205 9.90926 44.2993 10.4308 42.3478 10.6575C44.4026 9.42588 45.9411 7.491 46.6781 5.21159C44.7451 6.35718 42.6312 7.16528 40.4269 7.60128C38.9417 6.02318 36.978 4.97829 34.8394 4.62816C32.7008 4.27803 30.5064 4.64216 28.5955 5.66425C26.6846 6.68635 25.1636 8.30947 24.2677 10.2827C23.3718 12.2559 23.1509 14.4693 23.6391 16.5807C19.725 16.3842 15.8959 15.3675 12.4 13.5963C8.90405 11.825 5.81939 9.33893 3.34594 6.29909C2.0888 8.46655 1.70411 11.0314 2.27006 13.4722C2.83601 15.9131 4.31013 18.047 6.39281 19.44C4.82926 19.3904 3.29995 18.9694 1.93125 18.2119V18.3338C1.92985 20.6084 2.7162 22.8132 4.15662 24.5736C5.59704 26.334 7.60265 27.5412 9.8325 27.99C8.38411 28.3863 6.86396 28.4441 5.38969 28.1588C6.01891 30.1149 7.24315 31.8258 8.89154 33.0527C10.5399 34.2796 12.5302 34.9613 14.5847 35.0025C11.0968 37.7423 6.78835 39.2283 2.35313 39.2213C1.56657 39.2201 0.780798 39.1719 0 39.0769C4.50571 41.9676 9.74706 43.5028 15.1003 43.5Z" fill="currentColor"/>
  </symbol>
  <symbol id="linkedin" viewBox="0 0 48 48" fill="none">
    <path d="M44.4469 0H3.54375C1.58437 0 0 1.54688 0 3.45938V44.5312C0 46.4437 1.58437 48 3.54375 48H44.4469C46.4062 48 48 46.4438 48 44.5406V3.45938C48 1.54688 46.4062 0 44.4469 0ZM14.2406 40.9031H7.11563V17.9906H14.2406V40.9031ZM10.6781 14.8688C8.39062 14.8688 6.54375 13.0219 6.54375 10.7437C6.54375 8.46562 8.39062 6.61875 10.6781 6.61875C12.9563 6.61875 14.8031 8.46562 14.8031 10.7437C14.8031 13.0125 12.9563 14.8688 10.6781 14.8688ZM40.9031 40.9031H33.7875V29.7656C33.7875 27.1125 33.7406 23.6906 30.0844 23.6906C26.3812 23.6906 25.8187 26.5875 25.8187 29.5781V40.9031H18.7125V17.9906H25.5375V21.1219H25.6312C26.5781 19.3219 28.9031 17.4188 32.3625 17.4188C39.5719 17.4188 40.9031 22.1625 40.9031 28.3313V40.9031Z" fill="currentColor"/>
  </symbol>
  <symbol id="youtube" viewBox="0 0 48 48" fill="none">
    <path d="M47.5219 14.4001C47.5219 14.4001 47.0531 11.0907 45.6094 9.6376C43.7812 7.7251 41.7375 7.71572 40.8 7.60322C34.0875 7.11572 24.0094 7.11572 24.0094 7.11572H23.9906C23.9906 7.11572 13.9125 7.11572 7.2 7.60322C6.2625 7.71572 4.21875 7.7251 2.39062 9.6376C0.946875 11.0907 0.4875 14.4001 0.4875 14.4001C0.4875 14.4001 0 18.2907 0 22.172V25.8095C0 29.6907 0.478125 33.5813 0.478125 33.5813C0.478125 33.5813 0.946875 36.8907 2.38125 38.3438C4.20937 40.2563 6.60938 40.1907 7.67813 40.397C11.5219 40.7626 24 40.8751 24 40.8751C24 40.8751 34.0875 40.8563 40.8 40.3782C41.7375 40.2657 43.7812 40.2563 45.6094 38.3438C47.0531 36.8907 47.5219 33.5813 47.5219 33.5813C47.5219 33.5813 48 29.7001 48 25.8095V22.172C48 18.2907 47.5219 14.4001 47.5219 14.4001ZM19.0406 30.2251V16.7345L32.0062 23.5032L19.0406 30.2251Z" fill="currentColor"/>
  </symbol>
  <symbol id="pinterest" viewBox="0 0 48 48" fill="none">
    <path d="M24 0C10.7438 0 0 10.7438 0 24C0 34.1719 6.32812 42.8531 15.2531 46.35C15.0469 44.4469 14.85 41.5406 15.3375 39.4688C15.7781 37.5938 18.15 27.5437 18.15 27.5437C18.15 27.5437 17.4281 26.1094 17.4281 23.9813C17.4281 20.6438 19.3594 18.15 21.7687 18.15C23.8125 18.15 24.8063 19.6875 24.8063 21.5344C24.8063 23.5969 23.4937 26.6719 22.8187 29.5219C22.2562 31.9125 24.0187 33.8625 26.3719 33.8625C30.6375 33.8625 33.9187 29.3625 33.9187 22.875C33.9187 17.1281 29.7937 13.1063 23.8969 13.1063C17.0719 13.1063 13.0594 18.225 13.0594 23.5219C13.0594 25.5844 13.8562 27.7969 14.85 28.9969C15.0469 29.2312 15.075 29.4469 15.0187 29.6813C14.8406 30.4406 14.4281 32.0719 14.3531 32.4C14.25 32.8406 14.0063 32.9344 13.5469 32.7188C10.5469 31.3219 8.67188 26.9438 8.67188 23.4188C8.67188 15.8438 14.175 8.89688 24.525 8.89688C32.85 8.89688 39.3187 14.8313 39.3187 22.7625C39.3187 31.0312 34.1063 37.6875 26.8688 37.6875C24.4406 37.6875 22.1531 36.4219 21.3656 34.9313C21.3656 34.9313 20.1656 39.5156 19.875 40.6406C19.3312 42.7219 17.8687 45.3375 16.8937 46.9313C19.1437 47.625 21.525 48 24 48C37.2562 48 48 37.2562 48 24C48 10.7438 37.2562 0 24 0Z" fill="currentColor"/>
  </symbol>
  <symbol id="github" viewBox="0 0 48 48" fill="none">
    <path fill-rule="evenodd" clip-rule="evenodd" d="M24.0005 1C18.303 1.00296 12.7923 3.02092 8.45374 6.69305C4.11521 10.3652 1.23181 15.452 0.319089 21.044C-0.593628 26.636 0.523853 32.3684 3.47174 37.2164C6.41963 42.0643 11.0057 45.7115 16.4099 47.5059C17.6021 47.7272 18.0512 46.9883 18.0512 46.36C18.0512 45.7317 18.0273 43.91 18.0194 41.9184C11.3428 43.3608 9.93197 39.101 9.93197 39.101C8.84305 36.3349 7.26927 35.6078 7.26927 35.6078C5.09143 34.1299 7.43223 34.1576 7.43223 34.1576C9.84455 34.3275 11.1123 36.6194 11.1123 36.6194C13.2504 40.2667 16.7278 39.2116 18.0949 38.5952C18.3095 37.0501 18.9335 35.999 19.621 35.4023C14.2877 34.8017 8.68408 32.7548 8.68408 23.6108C8.65102 21.2394 9.53605 18.9461 11.156 17.2054C10.9096 16.6047 10.087 14.1785 11.3905 10.8829C11.3905 10.8829 13.4054 10.2427 17.9916 13.3289C21.9253 12.2592 26.0757 12.2592 30.0095 13.3289C34.5917 10.2427 36.6026 10.8829 36.6026 10.8829C37.9101 14.1706 37.0875 16.5968 36.8411 17.2054C38.4662 18.9464 39.353 21.2437 39.317 23.6187C39.317 32.7824 33.7015 34.8017 28.3602 35.3905C29.2186 36.1334 29.9856 37.5836 29.9856 39.8122C29.9856 43.0051 29.9578 45.5736 29.9578 46.36C29.9578 46.9962 30.391 47.7391 31.6071 47.5059C37.0119 45.7113 41.5984 42.0634 44.5462 37.2147C47.4941 32.3659 48.611 26.6326 47.6972 21.0401C46.7835 15.4476 43.8986 10.3607 39.5587 6.68921C35.2187 3.01771 29.7067 1.00108 24.0085 1H24.0005Z" fill="currentColor"/>
    <path d="M16.0557 39.9505C16.0557 40.1442 15.8331 40.3101 15.547 40.3141C15.2608 40.318 15.0264 40.16 15.0264 39.9663C15.0264 39.7727 15.2489 39.6067 15.535 39.6028C15.8212 39.5988 16.0557 39.753 16.0557 39.9505Z" fill="currentColor"/>
    <path d="M17.8838 39.6463C17.9196 39.8399 17.7208 40.0414 17.4347 40.0888C17.1486 40.1363 16.8982 40.0217 16.8624 39.832C16.8267 39.6423 17.0333 39.4368 17.3115 39.3855C17.5897 39.3341 17.848 39.4526 17.8838 39.6463Z" fill="currentColor"/>
    <path d="M14.0923 39.8162C14.0327 40.0019 13.7625 40.0849 13.4922 40.0058C13.222 39.9268 13.0432 39.7055 13.0948 39.5158C13.1465 39.3262 13.4207 39.2392 13.6949 39.3262C13.9691 39.4131 14.144 39.6225 14.0923 39.8162Z" fill="currentColor"/>
    <path d="M12.2921 39.0417C12.161 39.1879 11.8947 39.1484 11.6761 38.9508C11.4575 38.7532 11.4059 38.4845 11.537 38.3423C11.6682 38.2 11.9344 38.2395 12.161 38.4331C12.3875 38.6268 12.4312 38.8994 12.2921 39.0417Z" fill="currentColor"/>
    <path d="M11.0085 37.7139C10.8614 37.8167 10.6111 37.7139 10.472 37.5085C10.4335 37.4716 10.4029 37.4274 10.382 37.3785C10.3611 37.3296 10.3503 37.2771 10.3503 37.2239C10.3503 37.1708 10.3611 37.1183 10.382 37.0694C10.4029 37.0205 10.4335 36.9763 10.472 36.9394C10.619 36.8406 10.8694 36.9394 11.0085 37.141C11.1476 37.3425 11.1516 37.6112 11.0085 37.7139Z" fill="currentColor"/>
    <path d="M10.0626 36.3428C9.98028 36.384 9.88612 36.3955 9.79622 36.3753C9.70632 36.3551 9.62629 36.3045 9.56979 36.2321C9.41479 36.0662 9.38298 35.837 9.50221 35.7342C9.62143 35.6315 9.83606 35.6789 9.99105 35.8449C10.146 36.0108 10.1818 36.24 10.0626 36.3428Z" fill="currentColor"/>
    <path d="M9.08887 35.264C9.03721 35.3826 8.84645 35.4181 8.69146 35.3351C8.53646 35.2522 8.42122 35.098 8.47686 34.9755C8.5325 34.853 8.71928 34.8214 8.87428 34.9044C9.02927 34.9874 9.14848 35.1455 9.08887 35.264Z" fill="currentColor"/>
  </symbol>
</svg>