<svg xmlns="http://www.w3.org/2000/svg">
  <symbol id="cross" viewBox="0 0 24 24" fill="none">
    <path d="M19.7071 5.70711C20.0976 5.31658 20.0976 4.68342 19.7071 4.29289C19.3166 3.90237 18.6834 3.90237 18.2929 4.29289L12 10.5858L5.70711 4.29289C5.31658 3.90237 4.68342 3.90237 4.29289 4.29289C3.90237 4.68342 3.90237 5.31658 4.29289 5.70711L10.5858 12L4.29289 18.2929C3.90237 18.6834 3.90237 19.3166 4.29289 19.7071C4.68342 20.0976 5.31658 20.0976 5.70711 19.7071L12 13.4142L18.2929 19.7071C18.6834 20.0976 19.3166 20.0976 19.7071 19.7071C20.0976 19.3166 20.0976 18.6834 19.7071 18.2929L13.4142 12L19.7071 5.70711Z" fill="currentColor"/>
  </symbol>
  <symbol id="menu" viewBox="0 0 24 24" fill="none">
    <path d="M20 6L4 6" stroke="currentColor" stroke-width="1.5" stroke-linecap="round"/>
    <path d="M20 12L4 12" stroke="currentColor" stroke-width="1.5" stroke-linecap="round"/>
    <path d="M20 18H4" stroke="currentColor" stroke-width="1.5" stroke-linecap="round"/>
  </symbol>
  <symbol id="star" viewBox="0 0 22 20" fill="none">
    <path d="M9.97183 1.70846C10.4382 0.933481 11.5618 0.933482 12.0282 1.70847L14.3586 5.58087C14.5262 5.85928 14.7995 6.05784 15.116 6.13116L19.5191 7.15091C20.4002 7.35499 20.7474 8.42356 20.1545 9.10661L17.1918 12.5196C16.9788 12.765 16.8744 13.0863 16.9025 13.41L17.2932 17.9127C17.3714 18.8138 16.4625 19.4742 15.6296 19.1214L11.4681 17.3583C11.1689 17.2316 10.8311 17.2316 10.5319 17.3583L6.37038 19.1214C5.53754 19.4742 4.62856 18.8138 4.70677 17.9127L5.09754 13.41C5.12563 13.0863 5.02124 12.765 4.80823 12.5196L1.8455 9.1066C1.25257 8.42356 1.59977 7.35499 2.48095 7.15091L6.88397 6.13116C7.20053 6.05784 7.47383 5.85928 7.64138 5.58087L9.97183 1.70846Z" stroke="currentColor" stroke-width="1.5"/>
  </symbol>
  <symbol id="lightning" viewBox="0 0 24 24" fill="none">
    <path d="M13.8154 10.4211C13.7049 10.4211 13.6154 10.3316 13.6154 10.2211V2.60383C13.6154 2.41125 13.3699 2.32994 13.2549 2.48445L5.59411 12.7804C5.34868 13.1103 5.58411 13.5789 5.99525 13.5789H10.1846C10.2951 13.5789 10.3846 13.6684 10.3846 13.7789V21.3962C10.3846 21.5888 10.6301 21.6701 10.7451 21.5156L18.4059 11.2196C18.6513 10.8897 18.4159 10.4211 18.0047 10.4211H13.8154Z" stroke="currentColor" stroke-width="1.5"/>
  </symbol>
  <symbol id="fire" viewBox="0 0 24 24" fill="none">
    <path d="M13.7524 3.17224C13.7503 3.09602 13.6671 3.04639 13.6016 3.0855C10.1363 5.15576 10.2004 10.3491 10.2418 11.2901C10.2449 11.3611 10.1778 11.4112 10.1135 11.3809C9.71316 11.1924 8.5661 10.4823 8.50273 8.51531C8.50028 8.43898 8.41792 8.38991 8.35223 8.42885C6.34578 9.61803 5 11.8144 5 14.25C5 17.9779 8.134 21 12 21C15.866 21 19 17.9779 19 14.25C19 8.83413 13.8803 7.6694 13.7524 3.17224Z" stroke="currentColor" stroke-width="1.5"/>
  </symbol>
  <symbol id="gear" viewBox="0 0 24 24" fill="none">
    <circle cx="3" cy="3" r="3" transform="matrix(-1 0 0 1 15 9)" stroke="currentColor" stroke-width="1.5"/>
    <path d="M16.5001 4.9375L16.8751 4.28798L16.8751 4.28798L16.5001 4.9375ZM16.5001 19.0621L16.1251 18.4126L16.5001 19.0621ZM7.50005 19.0621L7.12505 19.7117H7.12505L7.50005 19.0621ZM7.50005 4.9375L7.87505 5.58702L7.50005 4.9375ZM8.92299 3.01508L8.19229 2.84601L8.92299 3.01508ZM5.31189 18.7402L5.13971 18.0102L5.31189 18.7402ZM4.403 18.503L4.97254 18.015L4.403 18.503ZM9.53927 21.695L9.72325 20.9679L9.53927 21.695ZM8.92305 20.9848L9.65376 20.8158L8.92305 20.9848ZM15.0771 20.9848L14.3464 20.8158L15.0771 20.9848ZM14.4609 21.695L14.6448 22.422L14.4609 21.695ZM19.597 18.503L19.0275 18.015L19.597 18.503ZM21.4437 8.70289L22.1518 8.45569L21.4437 8.70289ZM21.0936 9.68352L20.6167 9.10469L21.0936 9.68352ZM18.688 5.2595L18.5159 4.52952L18.688 5.2595ZM21.0936 14.3165L20.6167 14.8953L21.0936 14.3165ZM21.4437 15.2971L20.7356 15.0499L21.4437 15.2971ZM15.0772 3.01511L14.3465 3.18418L15.0772 3.01511ZM14.3465 3.18418C14.5723 4.16005 15.1879 5.04592 16.1251 5.58702L16.8751 4.28798C16.3127 3.96329 15.9439 3.43381 15.8079 2.84603L14.3465 3.18418ZM16.1251 5.58702C16.986 6.08408 17.9639 6.2008 18.8601 5.98949L18.5159 4.52952C17.9767 4.65663 17.3922 4.5865 16.8751 4.28798L16.1251 5.58702ZM22.1518 8.45569C21.7062 7.17937 21.0272 6.01337 20.1663 5.00871L19.0273 5.98471C19.7687 6.85004 20.3527 7.85328 20.7356 8.95008L22.1518 8.45569ZM20.75 12C20.75 11.3006 21.0682 10.6762 21.5705 10.2624L20.6167 9.10469C19.7834 9.79128 19.25 10.8337 19.25 12H20.75ZM21.5705 13.7376C21.0682 13.3238 20.75 12.6994 20.75 12H19.25C19.25 13.1663 19.7834 14.2087 20.6167 14.8953L21.5705 13.7376ZM20.1666 18.991C21.0273 17.9864 21.7063 16.8205 22.1518 15.5443L20.7356 15.0499C20.3528 16.1466 19.7688 17.1497 19.0275 18.015L20.1666 18.991ZM16.8751 19.7117C17.3922 19.4131 17.9768 19.343 18.516 19.4702L18.8603 18.0102C17.964 17.7988 16.9861 17.9155 16.1251 18.4126L16.8751 19.7117ZM15.8078 21.1538C15.9437 20.566 16.3126 20.0364 16.8751 19.7117L16.1251 18.4126C15.1877 18.9538 14.5721 19.8398 14.3464 20.8158L15.8078 21.1538ZM12 22.75C12.9117 22.75 13.7979 22.6363 14.6448 22.422L14.2769 20.9679C13.5493 21.152 12.7866 21.25 12 21.25V22.75ZM9.3553 22.4221C10.2022 22.6363 11.0883 22.75 12 22.75V21.25C11.2134 21.25 10.4508 21.152 9.72325 20.9679L9.3553 22.4221ZM7.12505 19.7117C7.68749 20.0364 8.05637 20.566 8.19233 21.1538L9.65376 20.8158C9.42802 19.8398 8.81238 18.9538 7.87505 18.4126L7.12505 19.7117ZM5.48406 19.4702C6.02327 19.343 6.60793 19.4131 7.12505 19.7117L7.87505 18.4126C7.01401 17.9155 6.03606 17.7988 5.13971 18.0102L5.48406 19.4702ZM1.84822 15.5443C2.29374 16.8205 2.97273 17.9864 3.83347 18.991L4.97254 18.015C4.23118 17.1498 3.64726 16.1466 3.2644 15.0499L1.84822 15.5443ZM3.25004 12C3.25004 12.6994 2.93185 13.3238 2.42953 13.7376L3.38336 14.8953C4.21668 14.2087 4.75004 13.1663 4.75004 12H3.25004ZM2.42953 10.2623C2.93185 10.6762 3.25004 11.3006 3.25004 12H4.75004C4.75004 10.8337 4.21668 9.79126 3.38336 9.10468L2.42953 10.2623ZM3.83375 5.00867C2.97288 6.01334 2.29379 7.17934 1.84822 8.45567L3.2644 8.95007C3.6473 7.85326 4.23132 6.85001 4.97279 5.98468L3.83375 5.00867ZM7.12505 4.28798C6.60798 4.58651 6.02337 4.65664 5.4842 4.5295L5.13994 5.98946C6.03623 6.20081 7.01409 6.0841 7.87505 5.58702L7.12505 4.28798ZM8.19229 2.84601C8.05629 3.43379 7.68743 3.96329 7.12505 4.28798L7.87505 5.58702C8.81227 5.04591 9.42788 4.16003 9.65368 3.18415L8.19229 2.84601ZM12 1.25C11.0883 1.25 10.2021 1.36366 9.35521 1.57796L9.72318 3.03213C10.4508 2.84802 11.2134 2.75 12 2.75V1.25ZM14.645 1.578C13.798 1.36368 12.9118 1.25 12 1.25V2.75C12.7867 2.75 13.5494 2.84803 14.277 3.03217L14.645 1.578ZM9.65368 3.18415C9.66929 3.11668 9.69574 3.06909 9.71626 3.04413C9.73389 3.02269 9.73703 3.02862 9.72318 3.03213L9.35521 1.57796C8.66401 1.75286 8.30711 2.3498 8.19229 2.84601L9.65368 3.18415ZM3.38336 9.10468C3.32248 9.05451 3.28709 9.00024 3.27289 8.96394C3.26095 8.93341 3.26974 8.93478 3.2644 8.95007L1.84822 8.45567C1.58221 9.21766 1.99436 9.9038 2.42953 10.2623L3.38336 9.10468ZM5.13971 18.0102C5.07248 18.0261 5.01821 18.0235 4.98674 18.0162C4.95969 18.0099 4.96341 18.0044 4.97254 18.015L3.83347 18.991C4.29652 19.5314 4.98849 19.5871 5.48406 19.4702L5.13971 18.0102ZM9.72325 20.9679C9.73711 20.9714 9.73396 20.9773 9.71634 20.9559C9.69581 20.9309 9.66936 20.8833 9.65376 20.8158L8.19233 21.1538C8.30711 21.6501 8.66402 22.2471 9.3553 22.4221L9.72325 20.9679ZM14.3464 20.8158C14.3308 20.8833 14.3043 20.9309 14.2838 20.9559C14.2662 20.9773 14.263 20.9714 14.2769 20.9679L14.6448 22.422C15.3361 22.2471 15.693 21.6501 15.8078 21.1538L14.3464 20.8158ZM19.0275 18.015C19.0366 18.0043 19.0403 18.0098 19.0133 18.0161C18.9818 18.0235 18.9276 18.0261 18.8603 18.0102L18.516 19.4702C19.0116 19.587 19.7035 19.5314 20.1666 18.991L19.0275 18.015ZM20.7356 8.95008C20.7303 8.93479 20.7391 8.93343 20.7271 8.96395C20.7129 9.00025 20.6775 9.05452 20.6167 9.10469L21.5705 10.2624C22.0057 9.90381 22.4178 9.21767 22.1518 8.45569L20.7356 8.95008ZM3.2644 15.0499C3.26974 15.0652 3.26095 15.0666 3.27289 15.0361C3.28709 14.9998 3.32248 14.9455 3.38336 14.8953L2.42953 13.7376C1.99436 14.0962 1.58221 14.7823 1.84822 15.5443L3.2644 15.0499ZM18.8601 5.98949C18.9273 5.97364 18.9816 5.97624 19.0131 5.98357C19.0401 5.98987 19.0364 5.99537 19.0273 5.98471L20.1663 5.00871C19.7033 4.46835 19.0114 4.41269 18.5159 4.52952L18.8601 5.98949ZM4.97279 5.98468C4.96366 5.99534 4.95994 5.98984 4.98699 5.98354C5.01845 5.97621 5.07271 5.97361 5.13994 5.98946L5.4842 4.5295C4.98867 4.41265 4.29678 4.4683 3.83375 5.00867L4.97279 5.98468ZM20.6167 14.8953C20.6775 14.9455 20.7129 14.9997 20.7271 15.036C20.7391 15.0666 20.7303 15.0652 20.7356 15.0499L22.1518 15.5443C22.4178 14.7823 22.0057 14.0962 21.5705 13.7376L20.6167 14.8953ZM15.8079 2.84603C15.6931 2.34983 15.3362 1.75292 14.645 1.578L14.277 3.03217C14.2631 3.02866 14.2663 3.02273 14.2839 3.04417C14.3044 3.06913 14.3309 3.11672 14.3465 3.18418L15.8079 2.84603Z" fill="currentColor"/>
  </symbol>
  <symbol id="rocket" viewBox="0 0 24 24" fill="none">
    <path d="M18.3037 12.8089L17.7538 12.2989L18.3037 12.8089ZM11.2326 5.73783L11.7426 6.28773L11.2326 5.73783ZM21.661 4.27232L22.4047 4.36958L21.661 4.27232ZM19.7692 2.38046L19.8664 3.12413L19.7692 2.38046ZM6.4945 12.6506L7.16792 12.9808L6.4945 12.6506ZM11.3909 17.547L11.0607 16.8736L11.3909 17.547ZM8.22743 10.1572C7.93454 9.86432 7.45966 9.86432 7.16677 10.1572C6.87388 10.4501 6.87388 10.925 7.16677 11.2179L8.22743 10.1572ZM12.8236 16.8747C13.1165 17.1676 13.5914 17.1676 13.8843 16.8747C14.1772 16.5818 14.1772 16.107 13.8843 15.8141L12.8236 16.8747ZM6.45966 18.6425C6.75256 18.3496 6.75256 17.8747 6.45966 17.5818C6.16677 17.2889 5.6919 17.2889 5.399 17.5818L6.45966 18.6425ZM2.57058 20.4103C2.27768 20.7032 2.27768 21.178 2.57058 21.4709C2.86347 21.7638 3.33834 21.7638 3.63124 21.4709L2.57058 20.4103ZM4.33834 16.5212C4.63124 16.2283 4.63124 15.7534 4.33834 15.4605C4.04545 15.1676 3.57058 15.1676 3.27768 15.4605L4.33834 16.5212ZM1.86347 16.8747C1.57058 17.1676 1.57058 17.6425 1.86347 17.9354C2.15636 18.2283 2.63124 18.2283 2.92413 17.9354L1.86347 16.8747ZM8.58098 20.7638C8.87387 20.4709 8.87387 19.996 8.58098 19.7032C8.28809 19.4103 7.81321 19.4103 7.52032 19.7032L8.58098 20.7638ZM6.10611 21.1174C5.81322 21.4103 5.81322 21.8851 6.10611 22.178C6.399 22.4709 6.87388 22.4709 7.16677 22.178L6.10611 21.1174ZM10.5962 21.082L11.3387 20.9759L10.5962 21.082ZM15.7581 17.6172L16.5006 17.5111L15.7581 17.6172ZM2.95946 13.4453L3.06553 12.7028L3.06553 12.7028L2.95946 13.4453ZM6.42429 8.2834L6.31822 9.02586L6.31822 9.02586L6.42429 8.2834ZM9.75038 16.63L7.41152 14.2911L6.35086 15.3518L8.68972 17.6906L9.75038 16.63ZM17.7538 12.2989C15.8601 14.3406 12.7855 16.028 11.0607 16.8736L11.721 18.2204C13.4613 17.3673 16.7569 15.5795 18.8536 13.3189L17.7538 12.2989ZM7.16792 12.9808C8.01346 11.256 9.70087 8.18137 11.7426 6.28773L10.7226 5.18793C8.46197 7.28458 6.67421 10.5802 5.82107 12.3205L7.16792 12.9808ZM20.9174 4.17506C20.6135 6.49841 19.8062 10.086 17.7538 12.2989L18.8536 13.3189C21.2491 10.7361 22.0962 6.72859 22.4047 4.36958L20.9174 4.17506ZM11.7426 6.28773C13.9555 4.23532 17.5431 3.42799 19.8664 3.12413L19.6719 1.6368C17.3129 1.94532 13.3054 2.79243 10.7226 5.18793L11.7426 6.28773ZM22.4047 4.36958C22.6158 2.75571 21.2858 1.42572 19.6719 1.6368L19.8664 3.12413C20.5034 3.04082 21.0007 3.5381 20.9174 4.17506L22.4047 4.36958ZM7.41152 14.2911C7.04834 13.9279 6.9596 13.4057 7.16792 12.9808L5.82107 12.3205C5.31288 13.3571 5.56307 14.564 6.35086 15.3518L7.41152 14.2911ZM8.68972 17.6906C9.47751 18.4784 10.6844 18.7286 11.721 18.2204L11.0607 16.8736C10.6358 17.0819 10.1136 16.9932 9.75038 16.63L8.68972 17.6906ZM7.16677 11.2179L12.8236 16.8747L13.8843 15.8141L8.22743 10.1572L7.16677 11.2179ZM5.399 17.5818L2.57058 20.4103L3.63124 21.4709L6.45966 18.6425L5.399 17.5818ZM3.27768 15.4605L1.86347 16.8747L2.92413 17.9354L4.33834 16.5212L3.27768 15.4605ZM7.52032 19.7032L6.10611 21.1174L7.16677 22.178L8.58098 20.7638L7.52032 19.7032ZM13.1772 6.97523C12.1032 8.04917 12.1032 9.79037 13.1772 10.8643L14.2378 9.80366C13.7497 9.3155 13.7497 8.52404 14.2378 8.03589L13.1772 6.97523ZM13.1772 10.8643C14.2511 11.9383 15.9923 11.9383 17.0663 10.8643L16.0056 9.80366C15.5174 10.2918 14.726 10.2918 14.2378 9.80366L13.1772 10.8643ZM17.0663 10.8643C18.1402 9.79038 18.1402 8.04917 17.0663 6.97523L16.0056 8.03589C16.4938 8.52404 16.4938 9.3155 16.0056 9.80366L17.0663 10.8643ZM17.0663 6.97523C15.9923 5.90129 14.2511 5.90129 13.1772 6.97523L14.2378 8.03589C14.726 7.54773 15.5174 7.54773 16.0056 8.03589L17.0663 6.97523ZM14.9449 17.9354L11.763 21.1174L12.8236 22.178L16.0056 18.996L14.9449 17.9354ZM11.3387 20.9759L10.9144 18.0061L9.42951 18.2182L9.85378 21.1881L11.3387 20.9759ZM14.7328 15.7434L15.0157 17.7233L16.5006 17.5111L16.2177 15.5312L14.7328 15.7434ZM11.763 21.1174C11.6173 21.263 11.3678 21.1799 11.3387 20.9759L9.85378 21.1881C10.0577 22.6157 11.8039 23.1977 12.8236 22.178L11.763 21.1174ZM16.0056 18.996C16.3951 18.6066 16.5785 18.0564 16.5006 17.5111L15.0157 17.7233C15.0268 17.8011 15.0006 17.8797 14.9449 17.9354L16.0056 18.996ZM5.04543 8.03591L1.86345 11.2179L2.92411 12.2786L6.10609 9.09657L5.04543 8.03591ZM2.8534 14.1877L5.82324 14.612L6.03538 13.1271L3.06553 12.7028L2.8534 14.1877ZM8.51025 7.82378L6.53035 7.54094L6.31822 9.02586L8.29812 9.3087L8.51025 7.82378ZM1.86345 11.2179C0.843743 12.2376 1.42581 13.9838 2.8534 14.1877L3.06553 12.7028C2.86159 12.6737 2.77844 12.4242 2.92411 12.2786L1.86345 11.2179ZM6.10609 9.09657C6.16173 9.04093 6.24032 9.01473 6.31822 9.02586L6.53035 7.54094C5.98506 7.46304 5.43492 7.64642 5.04543 8.03591L6.10609 9.09657Z" fill="currentColor"/>
  </symbol>
  <symbol id="chart-one" viewBox="0 0 24 24" fill="none" xmlns="http://www.w3.org/2000/svg">
    <rect x="2" y="2" width="20" height="20" rx="5" stroke="currentColor" stroke-width="1.5"/>
    <path d="M8 17L8 14" stroke="currentColor" stroke-width="1.5" stroke-linecap="round" stroke-linejoin="round"/>
    <path d="M12 17L12 7" stroke="currentColor" stroke-width="1.5" stroke-linecap="round" stroke-linejoin="round"/>
    <path d="M16 17L16 10" stroke="currentColor" stroke-width="1.5" stroke-linecap="round" stroke-linejoin="round"/>
  </symbol>
  <symbol id="chart-two" viewBox="0 0 24 24" fill="none">
    <path d="M22 9V17C22 19.7614 19.7614 22 17 22H7C4.23858 22 2 19.7614 2 17V7C2 4.23858 4.23858 2 7 2H16" stroke="currentColor" stroke-width="1.5" stroke-linecap="round"/>
    <circle cx="2" cy="2" r="2" transform="matrix(-1 0 0 1 23 2)" stroke="currentColor" stroke-width="1.5"/>
    <path d="M7 14.75L10.5 10.75L13.5 13.25L17 9.25" stroke="currentColor" stroke-width="1.5" stroke-linecap="round" stroke-linejoin="round"/>
  </symbol>
    <symbol id="chevron-right" viewBox="0 0 24 24" fill="none">
    <path d="M9 19L14.3306 12.7809C14.7158 12.3316 14.7158 11.6684 14.3306 11.2191L9 5" stroke="currentColor" stroke-width="1.5" stroke-linecap="round"/>
  </symbol>
  <symbol id="chevron-left" viewBox="0 0 24 24" fill="none">
    <path d="M15 5L9.66939 11.2191C9.2842 11.6684 9.2842 12.3316 9.66939 12.7809L15 19" stroke="currentColor" stroke-width="1.5" stroke-linecap="round"/>
  </symbol>
  <symbol id="quote" fill="currentColor" viewBox="0 0 349.078 349.078">
    <path d="M198.779 322.441v-58.245c0-7.903 6.406-14.304 14.304-14.304 28.183.0 43.515-28.904 45.643-85.961h-45.643c-7.897.0-14.304-6.41-14.304-14.304V26.64c0-7.9 6.406-14.301 14.304-14.301h121.69c7.896.0 14.305 6.408 14.305 14.301v122.988c0 27.349-2.761 52.446-8.181 74.611-5.568 22.722-14.115 42.587-25.398 59.049-11.604 16.917-26.132 30.192-43.155 39.437-17.152 9.304-37.09 14.026-59.267 14.026C205.186 336.745 198.779 330.338 198.779 322.441zM14.301 249.887C6.404 249.887.0 256.293.0 264.185v58.257c0 7.896 6.404 14.298 14.301 14.298 22.166.0 42.114-4.723 59.255-14.026 17.032-9.244 31.558-22.508 43.161-39.437 11.29-16.462 19.836-36.328 25.404-59.061 5.423-22.165 8.178-47.263 8.178-74.6V26.628c0-7.9-6.41-14.301-14.304-14.301H14.301C6.404 12.327.0 18.734.0 26.628v122.988c0 7.899 6.404 14.304 14.301 14.304h45.002c-2.102 57.062-17.213 85.967-45.002 85.967z"/>
  </symbol>
  <symbol id="mail" viewBox="0 0 24 24" fill="none">
    <rect x="2" y="4" width="20" height="16" rx="5" stroke="currentColor" stroke-width="1.5"/>
    <path d="M6 9L10.8 12.6C11.5111 13.1333 12.4889 13.1333 13.2 12.6L18 9" stroke="currentColor" stroke-width="1.5" stroke-linecap="round" stroke-linejoin="round"/>
  </symbol>
</svg>