<svg xmlns="http://www.w3.org/2000/svg">
  <symbol id="cross" viewBox="0 0 24 24" fill="none">
    <path d="M19.7071 5.70711C20.0976 5.31658 20.0976 4.68342 19.7071 4.29289C19.3166 3.90237 18.6834 3.90237 18.2929 4.29289L12 10.5858L5.70711 4.29289C5.31658 3.90237 4.68342 3.90237 4.29289 4.29289C3.90237 4.68342 3.90237 5.31658 4.29289 5.70711L10.5858 12L4.29289 18.2929C3.90237 18.6834 3.90237 19.3166 4.29289 19.7071C4.68342 20.0976 5.31658 20.0976 5.70711 19.7071L12 13.4142L18.2929 19.7071C18.6834 20.0976 19.3166 20.0976 19.7071 19.7071C20.0976 19.3166 20.0976 18.6834 19.7071 18.2929L13.4142 12L19.7071 5.70711Z" fill="currentColor"/>
  </symbol>
  <symbol id="menu" viewBox="0 0 24 24" fill="none">
    <path d="M20 6L4 6" stroke="currentColor" stroke-width="1.5" stroke-linecap="round"/>
    <path d="M20 12L4 12" stroke="currentColor" stroke-width="1.5" stroke-linecap="round"/>
    <path d="M20 18H4" stroke="currentColor" stroke-width="1.5" stroke-linecap="round"/>
  </symbol>
  <symbol id="star" viewBox="0 0 22 20" fill="none">
    <path d="M9.97183 1.70846C10.4382 0.933481 11.5618 0.933482 12.0282 1.70847L14.3586 5.58087C14.5262 5.85928 14.7995 6.05784 15.116 6.13116L19.5191 7.15091C20.4002 7.35499 20.7474 8.42356 20.1545 9.10661L17.1918 12.5196C16.9788 12.765 16.8744 13.0863 16.9025 13.41L17.2932 17.9127C17.3714 18.8138 16.4625 19.4742 15.6296 19.1214L11.4681 17.3583C11.1689 17.2316 10.8311 17.2316 10.5319 17.3583L6.37038 19.1214C5.53754 19.4742 4.62856 18.8138 4.70677 17.9127L5.09754 13.41C5.12563 13.0863 5.02124 12.765 4.80823 12.5196L1.8455 9.1066C1.25257 8.42356 1.59977 7.35499 2.48095 7.15091L6.88397 6.13116C7.20053 6.05784 7.47383 5.85928 7.64138 5.58087L9.97183 1.70846Z" stroke="currentColor" stroke-width="1.5"/>
  </symbol>
  <symbol id="lightning" viewBox="0 0 24 24" fill="none">
    <path d="M13.8154 10.4211C13.7049 10.4211 13.6154 10.3316 13.6154 10.2211V2.60383C13.6154 2.41125 13.3699 2.32994 13.2549 2.48445L5.59411 12.7804C5.34868 13.1103 5.58411 13.5789 5.99525 13.5789H10.1846C10.2951 13.5789 10.3846 13.6684 10.3846 13.7789V21.3962C10.3846 21.5888 10.6301 21.6701 10.7451 21.5156L18.4059 11.2196C18.6513 10.8897 18.4159 10.4211 18.0047 10.4211H13.8154Z" stroke="currentColor" stroke-width="1.5"/>
  </symbol>
  <symbol id="fire" viewBox="0 0 24 24" fill="none">
    <path d="M13.7524 3.17224C13.7503 3.09602 13.6671 3.04639 13.6016 3.0855C10.1363 5.15576 10.2004 10.3491 10.2418 11.2901C10.2449 11.3611 10.1778 11.4112 10.1135 11.3809C9.71316 11.1924 8.5661 10.4823 8.50273 8.51531C8.50028 8.43898 8.41792 8.38991 8.35223 8.42885C6.34578 9.61803 5 11.8144 5 14.25C5 17.9779 8.134 21 12 21C15.866 21 19 17.9779 19 14.25C19 8.83413 13.8803 7.6694 13.7524 3.17224Z" stroke="currentColor" stroke-width="1.5"/>
  </symbol>
</svg>